
<global>
amp_veltrack=0
ampeg_release=3.50
</global>

<group>
group_label=RR1
seq_length=3
seq_position=1

<region>
hivel=31
key=G7
lovel=0
offset=16567
sample=Xylophone_Soft_Mallets_Sustain_PP_G6_RR1.opus
</region>

<region>
hivel=31
key=G6
lovel=0
offset=16275
sample=Xylophone_Soft_Mallets_Sustain_PP_G5_RR1.opus
</region>

<region>
hivel=31
key=G5
lovel=0
offset=15812
sample=Xylophone_Soft_Mallets_Sustain_PP_G4_RR1.opus
</region>

<region>
hivel=31
key=G4
lovel=0
offset=14457
sample=Xylophone_Soft_Mallets_Sustain_PP_G3_RR1.opus
</region>

<region>
hivel=31
key=G#7
lovel=0
offset=15620
sample=Xylophone_Soft_Mallets_Sustain_PP_G#6_RR1.opus
</region>

<region>
hivel=31
key=G#6
lovel=0
offset=16141
sample=Xylophone_Soft_Mallets_Sustain_PP_G#5_RR1.opus
</region>

<region>
hivel=31
key=G#5
lovel=0
offset=15337
sample=Xylophone_Soft_Mallets_Sustain_PP_G#4_RR1.opus
</region>

<region>
hivel=31
key=G#4
lovel=0
offset=14906
sample=Xylophone_Soft_Mallets_Sustain_PP_G#3_RR1.opus
</region>

<region>
hivel=31
key=F7
lovel=0
offset=16912
sample=Xylophone_Soft_Mallets_Sustain_PP_F6_RR1.opus
</region>

<region>
hivel=31
key=F6
lovel=0
offset=15849
sample=Xylophone_Soft_Mallets_Sustain_PP_F5_RR1.opus
</region>

<region>
hivel=31
key=F5
lovel=0
offset=13011
sample=Xylophone_Soft_Mallets_Sustain_PP_F4_RR1.opus
</region>

<region>
hivel=31
key=F4
lovel=0
offset=12634
sample=Xylophone_Soft_Mallets_Sustain_PP_F3_RR1.opus
</region>

<region>
hivel=31
key=F#7
lovel=0
offset=15748
sample=Xylophone_Soft_Mallets_Sustain_PP_F#6_RR1.opus
</region>

<region>
hivel=31
key=F#6
lovel=0
offset=15486
sample=Xylophone_Soft_Mallets_Sustain_PP_F#5_RR1.opus
</region>

<region>
hivel=31
key=F#5
lovel=0
offset=14469
sample=Xylophone_Soft_Mallets_Sustain_PP_F#4_RR1.opus
</region>

<region>
hivel=31
key=F#4
lovel=0
offset=16702
sample=Xylophone_Soft_Mallets_Sustain_PP_F#3_RR1.opus
</region>

<region>
hivel=31
key=E7
lovel=0
offset=15409
sample=Xylophone_Soft_Mallets_Sustain_PP_E6_RR1.opus
</region>

<region>
hivel=31
key=E6
lovel=0
offset=14271
sample=Xylophone_Soft_Mallets_Sustain_PP_E5_RR1.opus
</region>

<region>
hivel=31
key=E5
lovel=0
offset=14692
sample=Xylophone_Soft_Mallets_Sustain_PP_E4_RR1.opus
</region>

<region>
hivel=31
key=D7
lovel=0
offset=15426
sample=Xylophone_Soft_Mallets_Sustain_PP_D6_RR1.opus
</region>

<region>
hivel=31
key=D6
lovel=0
offset=14813
sample=Xylophone_Soft_Mallets_Sustain_PP_D5_RR1.opus
</region>

<region>
hivel=31
key=D5
lovel=0
offset=15568
sample=Xylophone_Soft_Mallets_Sustain_PP_D4_RR1.opus
</region>

<region>
hivel=31
key=D#7
lovel=0
offset=16380
sample=Xylophone_Soft_Mallets_Sustain_PP_D#6_RR1.opus
</region>

<region>
hivel=31
key=D#6
lovel=0
offset=15590
sample=Xylophone_Soft_Mallets_Sustain_PP_D#5_RR1.opus
</region>

<region>
hivel=31
key=D#5
lovel=0
offset=16560
sample=Xylophone_Soft_Mallets_Sustain_PP_D#4_RR1.opus
</region>

<region>
hivel=31
key=C8
lovel=0
offset=13205
sample=Xylophone_Soft_Mallets_Sustain_PP_C7_RR1.opus
</region>

<region>
hivel=31
key=C7
lovel=0
offset=17274
sample=Xylophone_Soft_Mallets_Sustain_PP_C6_RR1.opus
</region>

<region>
hivel=31
key=C6
lovel=0
offset=14708
sample=Xylophone_Soft_Mallets_Sustain_PP_C5_RR1.opus
</region>

<region>
hivel=31
key=C5
lovel=0
offset=11937
sample=Xylophone_Soft_Mallets_Sustain_PP_C4_RR1.opus
</region>

<region>
hivel=31
key=C#7
lovel=0
offset=15948
sample=Xylophone_Soft_Mallets_Sustain_PP_C#6_RR1.opus
</region>

<region>
hivel=31
key=C#6
lovel=0
offset=16258
sample=Xylophone_Soft_Mallets_Sustain_PP_C#5_RR1.opus
</region>

<region>
hivel=31
key=C#5
lovel=0
offset=14952
sample=Xylophone_Soft_Mallets_Sustain_PP_C#4_RR1.opus
</region>

<region>
hivel=31
key=B7
lovel=0
offset=13132
sample=Xylophone_Soft_Mallets_Sustain_PP_B6_RR1.opus
</region>

<region>
hivel=31
key=B6
lovel=0
offset=15329
sample=Xylophone_Soft_Mallets_Sustain_PP_B5_RR1.opus
</region>

<region>
hivel=31
key=B5
lovel=0
offset=15525
sample=Xylophone_Soft_Mallets_Sustain_PP_B4_RR1.opus
</region>

<region>
hivel=31
key=B4
lovel=0
offset=14203
sample=Xylophone_Soft_Mallets_Sustain_PP_B3_RR1.opus
</region>

<region>
hivel=31
key=A7
lovel=0
offset=14548
sample=Xylophone_Soft_Mallets_Sustain_PP_A6_RR1.opus
</region>

<region>
hivel=31
key=A6
lovel=0
offset=15196
sample=Xylophone_Soft_Mallets_Sustain_PP_A5_RR1.opus
</region>

<region>
hivel=31
key=A5
lovel=0
offset=16701
sample=Xylophone_Soft_Mallets_Sustain_PP_A4_RR1.opus
</region>

<region>
hivel=31
key=A4
lovel=0
offset=13651
sample=Xylophone_Soft_Mallets_Sustain_PP_A3_RR1.opus
</region>

<region>
hivel=31
key=A#7
lovel=0
offset=14465
sample=Xylophone_Soft_Mallets_Sustain_PP_A#6_RR1.opus
</region>

<region>
hivel=31
key=A#6
lovel=0
offset=15755
sample=Xylophone_Soft_Mallets_Sustain_PP_A#5_RR1.opus
</region>

<region>
hivel=31
key=A#5
lovel=0
offset=14792
sample=Xylophone_Soft_Mallets_Sustain_PP_A#4_RR1.opus
</region>

<region>
hivel=31
key=A#4
lovel=0
offset=14677
sample=Xylophone_Soft_Mallets_Sustain_PP_A#3_RR1.opus
</region>

<region>
hivel=63
key=G7
lovel=32
offset=9755
sample=Xylophone_Soft_Mallets_Sustain_MP_G6_RR1.opus
</region>

<region>
hivel=63
key=G6
lovel=32
sample=Xylophone_Soft_Mallets_Sustain_MP_G5_RR1.opus
</region>

<region>
hivel=63
key=G5
lovel=32
sample=Xylophone_Soft_Mallets_Sustain_MP_G4_RR1.opus
</region>

<region>
hivel=63
key=G4
lovel=32
sample=Xylophone_Soft_Mallets_Sustain_MP_G3_RR1.opus
</region>

<region>
hivel=63
key=G#7
lovel=32
offset=10083
sample=Xylophone_Soft_Mallets_Sustain_MP_G#6_RR1.opus
</region>

<region>
hivel=63
key=G#6
lovel=32
sample=Xylophone_Soft_Mallets_Sustain_MP_G#5_RR1.opus
</region>

<region>
hivel=63
key=G#5
lovel=32
sample=Xylophone_Soft_Mallets_Sustain_MP_G#4_RR1.opus
</region>

<region>
hivel=63
key=G#4
lovel=32
sample=Xylophone_Soft_Mallets_Sustain_MP_G#3_RR1.opus
</region>

<region>
hivel=63
key=F7
lovel=32
offset=10227
sample=Xylophone_Soft_Mallets_Sustain_MP_F6_RR1.opus
</region>

<region>
hivel=63
key=F6
lovel=32
sample=Xylophone_Soft_Mallets_Sustain_MP_F5_RR1.opus
</region>

<region>
hivel=63
key=F5
lovel=32
sample=Xylophone_Soft_Mallets_Sustain_MP_F4_RR1.opus
</region>

<region>
hivel=63
key=F4
lovel=32
offset=13919
sample=Xylophone_Soft_Mallets_Sustain_MP_F3_RR1.opus
</region>

<region>
hivel=63
key=F#7
lovel=32
offset=11161
sample=Xylophone_Soft_Mallets_Sustain_MP_F#6_RR1.opus
</region>

<region>
hivel=63
key=F#6
lovel=32
sample=Xylophone_Soft_Mallets_Sustain_MP_F#5_RR1.opus
</region>

<region>
hivel=63
key=F#5
lovel=32
sample=Xylophone_Soft_Mallets_Sustain_MP_F#4_RR1.opus
</region>

<region>
hivel=63
key=F#4
lovel=32
sample=Xylophone_Soft_Mallets_Sustain_MP_F#3_RR1.opus
</region>

<region>
hivel=63
key=E7
lovel=32
offset=10418
sample=Xylophone_Soft_Mallets_Sustain_MP_E6_RR1.opus
</region>

<region>
hivel=63
key=E6
lovel=32
sample=Xylophone_Soft_Mallets_Sustain_MP_E5_RR1.opus
</region>

<region>
hivel=63
key=E5
lovel=32
sample=Xylophone_Soft_Mallets_Sustain_MP_E4_RR1.opus
</region>

<region>
hivel=63
key=D7
lovel=32
offset=12698
sample=Xylophone_Soft_Mallets_Sustain_MP_D6_RR1.opus
</region>

<region>
hivel=63
key=D6
lovel=32
sample=Xylophone_Soft_Mallets_Sustain_MP_D5_RR1.opus
</region>

<region>
hivel=63
key=D5
lovel=32
sample=Xylophone_Soft_Mallets_Sustain_MP_D4_RR1.opus
</region>

<region>
hivel=63
key=D#7
lovel=32
offset=10826
sample=Xylophone_Soft_Mallets_Sustain_MP_D#6_RR1.opus
</region>

<region>
hivel=63
key=D#6
lovel=32
sample=Xylophone_Soft_Mallets_Sustain_MP_D#5_RR1.opus
</region>

<region>
hivel=63
key=D#5
lovel=32
sample=Xylophone_Soft_Mallets_Sustain_MP_D#4_RR1.opus
</region>

<region>
hivel=63
key=C8
lovel=32
offset=9141
sample=Xylophone_Soft_Mallets_Sustain_MP_C7_RR1.opus
</region>

<region>
hivel=63
key=C7
lovel=32
offset=13046
sample=Xylophone_Soft_Mallets_Sustain_MP_C6_RR1.opus
</region>

<region>
hivel=63
key=C6
lovel=32
offset=5415
sample=Xylophone_Soft_Mallets_Sustain_MP_C5_RR1.opus
</region>

<region>
hivel=63
key=C5
lovel=32
sample=Xylophone_Soft_Mallets_Sustain_MP_C4_RR1.opus
</region>

<region>
hivel=63
key=C#7
lovel=32
offset=11094
sample=Xylophone_Soft_Mallets_Sustain_MP_C#6_RR1.opus
</region>

<region>
hivel=63
key=C#6
lovel=32
sample=Xylophone_Soft_Mallets_Sustain_MP_C#5_RR1.opus
</region>

<region>
hivel=63
key=C#5
lovel=32
sample=Xylophone_Soft_Mallets_Sustain_MP_C#4_RR1.opus
</region>

<region>
hivel=63
key=B7
lovel=32
offset=11615
sample=Xylophone_Soft_Mallets_Sustain_MP_B6_RR1.opus
</region>

<region>
hivel=63
key=B6
lovel=32
offset=9051
sample=Xylophone_Soft_Mallets_Sustain_MP_B5_RR1.opus
</region>

<region>
hivel=63
key=B5
lovel=32
sample=Xylophone_Soft_Mallets_Sustain_MP_B4_RR1.opus
</region>

<region>
hivel=63
key=B4
lovel=32
sample=Xylophone_Soft_Mallets_Sustain_MP_B3_RR1.opus
</region>

<region>
hivel=63
key=A7
lovel=32
offset=10108
sample=Xylophone_Soft_Mallets_Sustain_MP_A6_RR1.opus
</region>

<region>
hivel=63
key=A6
lovel=32
sample=Xylophone_Soft_Mallets_Sustain_MP_A5_RR1.opus
</region>

<region>
hivel=63
key=A5
lovel=32
sample=Xylophone_Soft_Mallets_Sustain_MP_A4_RR1.opus
</region>

<region>
hivel=63
key=A4
lovel=32
sample=Xylophone_Soft_Mallets_Sustain_MP_A3_RR1.opus
</region>

<region>
hivel=63
key=A#7
lovel=32
offset=10607
sample=Xylophone_Soft_Mallets_Sustain_MP_A#6_RR1.opus
</region>

<region>
hivel=63
key=A#6
lovel=32
sample=Xylophone_Soft_Mallets_Sustain_MP_A#5_RR1.opus
</region>

<region>
hivel=63
key=A#5
lovel=32
sample=Xylophone_Soft_Mallets_Sustain_MP_A#4_RR1.opus
</region>

<region>
hivel=63
key=A#4
lovel=32
sample=Xylophone_Soft_Mallets_Sustain_MP_A#3_RR1.opus
</region>

<region>
hivel=95
key=G7
lovel=64
offset=13823
sample=Xylophone_Soft_Mallets_Sustain_MF_G6_RR1.opus
</region>

<region>
hivel=95
key=G6
lovel=64
sample=Xylophone_Soft_Mallets_Sustain_MF_G5_RR1.opus
</region>

<region>
hivel=95
key=G5
lovel=64
sample=Xylophone_Soft_Mallets_Sustain_MF_G4_RR1.opus
</region>

<region>
hivel=95
key=G4
lovel=64
sample=Xylophone_Soft_Mallets_Sustain_MF_G3_RR1.opus
</region>

<region>
hivel=95
key=G#7
lovel=64
offset=304
sample=Xylophone_Soft_Mallets_Sustain_MF_G#6_RR1.opus
</region>

<region>
hivel=95
key=G#6
lovel=64
sample=Xylophone_Soft_Mallets_Sustain_MF_G#5_RR1.opus
</region>

<region>
hivel=95
key=G#5
lovel=64
sample=Xylophone_Soft_Mallets_Sustain_MF_G#4_RR1.opus
</region>

<region>
hivel=95
key=G#4
lovel=64
sample=Xylophone_Soft_Mallets_Sustain_MF_G#3_RR1.opus
</region>

<region>
hivel=95
key=F7
lovel=64
sample=Xylophone_Soft_Mallets_Sustain_MF_F6_RR1.opus
</region>

<region>
hivel=95
key=F6
lovel=64
sample=Xylophone_Soft_Mallets_Sustain_MF_F5_RR1.opus
</region>

<region>
hivel=95
key=F5
lovel=64
sample=Xylophone_Soft_Mallets_Sustain_MF_F4_RR1.opus
</region>

<region>
hivel=95
key=F4
lovel=64
sample=Xylophone_Soft_Mallets_Sustain_MF_F3_RR1.opus
</region>

<region>
hivel=95
key=F#7
lovel=64
offset=12547
sample=Xylophone_Soft_Mallets_Sustain_MF_F#6_RR1.opus
</region>

<region>
hivel=95
key=F#6
lovel=64
sample=Xylophone_Soft_Mallets_Sustain_MF_F#5_RR1.opus
</region>

<region>
hivel=95
key=F#5
lovel=64
sample=Xylophone_Soft_Mallets_Sustain_MF_F#4_RR1.opus
</region>

<region>
hivel=95
key=F#4
lovel=64
sample=Xylophone_Soft_Mallets_Sustain_MF_F#3_RR1.opus
</region>

<region>
hivel=95
key=E7
lovel=64
offset=11165
sample=Xylophone_Soft_Mallets_Sustain_MF_E6_RR1.opus
</region>

<region>
hivel=95
key=E6
lovel=64
sample=Xylophone_Soft_Mallets_Sustain_MF_E5_RR1.opus
</region>

<region>
hivel=95
key=E5
lovel=64
sample=Xylophone_Soft_Mallets_Sustain_MF_E4_RR1.opus
</region>

<region>
hivel=95
key=D7
lovel=64
offset=14997
sample=Xylophone_Soft_Mallets_Sustain_MF_D6_RR1.opus
</region>

<region>
hivel=95
key=D6
lovel=64
sample=Xylophone_Soft_Mallets_Sustain_MF_D5_RR1.opus
</region>

<region>
hivel=95
key=D5
lovel=64
sample=Xylophone_Soft_Mallets_Sustain_MF_D4_RR1.opus
</region>

<region>
hivel=95
key=D#7
lovel=64
offset=11590
sample=Xylophone_Soft_Mallets_Sustain_MF_D#6_RR1.opus
</region>

<region>
hivel=95
key=D#6
lovel=64
sample=Xylophone_Soft_Mallets_Sustain_MF_D#5_RR1.opus
</region>

<region>
hivel=95
key=D#5
lovel=64
sample=Xylophone_Soft_Mallets_Sustain_MF_D#4_RR1.opus
</region>

<region>
hivel=95
key=C8
lovel=64
offset=13429
sample=Xylophone_Soft_Mallets_Sustain_MF_C7_RR1.opus
</region>

<region>
hivel=95
key=C7
lovel=64
offset=11245
sample=Xylophone_Soft_Mallets_Sustain_MF_C6_RR1.opus
</region>

<region>
hivel=95
key=C6
lovel=64
sample=Xylophone_Soft_Mallets_Sustain_MF_C5_RR1.opus
</region>

<region>
hivel=95
key=C5
lovel=64
sample=Xylophone_Soft_Mallets_Sustain_MF_C4_RR1.opus
</region>

<region>
hivel=95
key=C#7
lovel=64
offset=11892
sample=Xylophone_Soft_Mallets_Sustain_MF_C#6_RR1.opus
</region>

<region>
hivel=95
key=C#6
lovel=64
sample=Xylophone_Soft_Mallets_Sustain_MF_C#5_RR1.opus
</region>

<region>
hivel=95
key=C#5
lovel=64
sample=Xylophone_Soft_Mallets_Sustain_MF_C#4_RR1.opus
</region>

<region>
hivel=95
key=B7
lovel=64
offset=12534
sample=Xylophone_Soft_Mallets_Sustain_MF_B6_RR1.opus
</region>

<region>
hivel=95
key=B6
lovel=64
offset=9271
sample=Xylophone_Soft_Mallets_Sustain_MF_B5_RR1.opus
</region>

<region>
hivel=95
key=B5
lovel=64
sample=Xylophone_Soft_Mallets_Sustain_MF_B4_RR1.opus
</region>

<region>
hivel=95
key=B4
lovel=64
sample=Xylophone_Soft_Mallets_Sustain_MF_B3_RR1.opus
</region>

<region>
hivel=95
key=A7
lovel=64
offset=14444
sample=Xylophone_Soft_Mallets_Sustain_MF_A6_RR1.opus
</region>

<region>
hivel=95
key=A6
lovel=64
sample=Xylophone_Soft_Mallets_Sustain_MF_A5_RR1.opus
</region>

<region>
hivel=95
key=A5
lovel=64
sample=Xylophone_Soft_Mallets_Sustain_MF_A4_RR1.opus
</region>

<region>
hivel=95
key=A4
lovel=64
sample=Xylophone_Soft_Mallets_Sustain_MF_A3_RR1.opus
</region>

<region>
hivel=95
key=A#7
lovel=64
offset=14105
sample=Xylophone_Soft_Mallets_Sustain_MF_A#6_RR1.opus
</region>

<region>
hivel=95
key=A#6
lovel=64
sample=Xylophone_Soft_Mallets_Sustain_MF_A#5_RR1.opus
</region>

<region>
hivel=95
key=A#5
lovel=64
sample=Xylophone_Soft_Mallets_Sustain_MF_A#4_RR1.opus
</region>

<region>
hivel=95
key=A#4
lovel=64
sample=Xylophone_Soft_Mallets_Sustain_MF_A#3_RR1.opus
</region>

<region>
hivel=127
key=G7
lovel=96
sample=Xylophone_Soft_Mallets_Sustain_FF_G6_RR1.opus
</region>

<region>
hivel=127
key=G6
lovel=96
sample=Xylophone_Soft_Mallets_Sustain_FF_G5_RR1.opus
</region>

<region>
hivel=127
key=G5
lovel=96
sample=Xylophone_Soft_Mallets_Sustain_FF_G4_RR1.opus
</region>

<region>
hivel=127
key=G4
lovel=96
sample=Xylophone_Soft_Mallets_Sustain_FF_G3_RR1.opus
</region>

<region>
hivel=127
key=G#7
lovel=96
offset=5366
sample=Xylophone_Soft_Mallets_Sustain_FF_G#6_RR1.opus
</region>

<region>
hivel=127
key=G#6
lovel=96
sample=Xylophone_Soft_Mallets_Sustain_FF_G#5_RR1.opus
</region>

<region>
hivel=127
key=G#5
lovel=96
sample=Xylophone_Soft_Mallets_Sustain_FF_G#4_RR1.opus
</region>

<region>
hivel=127
key=G#4
lovel=96
sample=Xylophone_Soft_Mallets_Sustain_FF_G#3_RR1.opus
</region>

<region>
hivel=127
key=F7
lovel=96
sample=Xylophone_Soft_Mallets_Sustain_FF_F6_RR1.opus
</region>

<region>
hivel=127
key=F6
lovel=96
sample=Xylophone_Soft_Mallets_Sustain_FF_F5_RR1.opus
</region>

<region>
hivel=127
key=F5
lovel=96
sample=Xylophone_Soft_Mallets_Sustain_FF_F4_RR1.opus
</region>

<region>
hivel=127
key=F4
lovel=96
sample=Xylophone_Soft_Mallets_Sustain_FF_F3_RR1.opus
</region>

<region>
hivel=127
key=F#7
lovel=96
offset=9020
sample=Xylophone_Soft_Mallets_Sustain_FF_F#6_RR1.opus
</region>

<region>
hivel=127
key=F#6
lovel=96
sample=Xylophone_Soft_Mallets_Sustain_FF_F#5_RR1.opus
</region>

<region>
hivel=127
key=F#5
lovel=96
sample=Xylophone_Soft_Mallets_Sustain_FF_F#4_RR1.opus
</region>

<region>
hivel=127
key=F#4
lovel=96
sample=Xylophone_Soft_Mallets_Sustain_FF_F#3_RR1.opus
</region>

<region>
hivel=127
key=E7
lovel=96
sample=Xylophone_Soft_Mallets_Sustain_FF_E6_RR1.opus
</region>

<region>
hivel=127
key=E6
lovel=96
sample=Xylophone_Soft_Mallets_Sustain_FF_E5_RR1.opus
</region>

<region>
hivel=127
key=E5
lovel=96
sample=Xylophone_Soft_Mallets_Sustain_FF_E4_RR1.opus
</region>

<region>
hivel=127
key=D7
lovel=96
sample=Xylophone_Soft_Mallets_Sustain_FF_D6_RR1.opus
</region>

<region>
hivel=127
key=D6
lovel=96
sample=Xylophone_Soft_Mallets_Sustain_FF_D5_RR1.opus
</region>

<region>
hivel=127
key=D5
lovel=96
sample=Xylophone_Soft_Mallets_Sustain_FF_D4_RR1.opus
</region>

<region>
hivel=127
key=D#7
lovel=96
sample=Xylophone_Soft_Mallets_Sustain_FF_D#6_RR1.opus
</region>

<region>
hivel=127
key=D#6
lovel=96
sample=Xylophone_Soft_Mallets_Sustain_FF_D#5_RR1.opus
</region>

<region>
hivel=127
key=D#5
lovel=96
sample=Xylophone_Soft_Mallets_Sustain_FF_D#4_RR1.opus
</region>

<region>
hivel=127
key=C8
lovel=96
offset=11556
sample=Xylophone_Soft_Mallets_Sustain_FF_C7_RR1.opus
</region>

<region>
hivel=127
key=C7
lovel=96
offset=3258
sample=Xylophone_Soft_Mallets_Sustain_FF_C6_RR1.opus
</region>

<region>
hivel=127
key=C6
lovel=96
sample=Xylophone_Soft_Mallets_Sustain_FF_C5_RR1.opus
</region>

<region>
hivel=127
key=C5
lovel=96
sample=Xylophone_Soft_Mallets_Sustain_FF_C4_RR1.opus
</region>

<region>
hivel=127
key=C#7
lovel=96
sample=Xylophone_Soft_Mallets_Sustain_FF_C#6_RR1.opus
</region>

<region>
hivel=127
key=C#6
lovel=96
sample=Xylophone_Soft_Mallets_Sustain_FF_C#5_RR1.opus
</region>

<region>
hivel=127
key=C#5
lovel=96
sample=Xylophone_Soft_Mallets_Sustain_FF_C#4_RR1.opus
</region>

<region>
hivel=127
key=B7
lovel=96
offset=6984
sample=Xylophone_Soft_Mallets_Sustain_FF_B6_RR1.opus
</region>

<region>
hivel=127
key=B6
lovel=96
sample=Xylophone_Soft_Mallets_Sustain_FF_B5_RR1.opus
</region>

<region>
hivel=127
key=B5
lovel=96
sample=Xylophone_Soft_Mallets_Sustain_FF_B4_RR1.opus
</region>

<region>
hivel=127
key=B4
lovel=96
sample=Xylophone_Soft_Mallets_Sustain_FF_B3_RR1.opus
</region>

<region>
hivel=127
key=A7
lovel=96
sample=Xylophone_Soft_Mallets_Sustain_FF_A6_RR1.opus
</region>

<region>
hivel=127
key=A6
lovel=96
sample=Xylophone_Soft_Mallets_Sustain_FF_A5_RR1.opus
</region>

<region>
hivel=127
key=A5
lovel=96
sample=Xylophone_Soft_Mallets_Sustain_FF_A4_RR1.opus
</region>

<region>
hivel=127
key=A4
lovel=96
sample=Xylophone_Soft_Mallets_Sustain_FF_A3_RR1.opus
</region>

<region>
hivel=127
key=A#7
lovel=96
offset=3845
sample=Xylophone_Soft_Mallets_Sustain_FF_A#6_RR1.opus
</region>

<region>
hivel=127
key=A#6
lovel=96
sample=Xylophone_Soft_Mallets_Sustain_FF_A#5_RR1.opus
</region>

<region>
hivel=127
key=A#5
lovel=96
sample=Xylophone_Soft_Mallets_Sustain_FF_A#4_RR1.opus
</region>

<region>
hivel=127
key=A#4
lovel=96
sample=Xylophone_Soft_Mallets_Sustain_FF_A#3_RR1.opus
</region>
</group>

<group>
group_label=RR2
seq_length=3
seq_position=2

<region>
hivel=31
key=G7
lovel=0
offset=15746
sample=Xylophone_Soft_Mallets_Sustain_PP_G6_RR2.opus
</region>

<region>
hivel=31
key=G6
lovel=0
offset=15298
sample=Xylophone_Soft_Mallets_Sustain_PP_G5_RR2.opus
</region>

<region>
hivel=31
key=G5
lovel=0
offset=16275
sample=Xylophone_Soft_Mallets_Sustain_PP_G4_RR2.opus
</region>

<region>
hivel=31
key=G4
lovel=0
offset=16333
sample=Xylophone_Soft_Mallets_Sustain_PP_G3_RR2.opus
</region>

<region>
hivel=31
key=G#7
lovel=0
offset=15093
sample=Xylophone_Soft_Mallets_Sustain_PP_G#6_RR2.opus
</region>

<region>
hivel=31
key=G#6
lovel=0
offset=16162
sample=Xylophone_Soft_Mallets_Sustain_PP_G#5_RR2.opus
</region>

<region>
hivel=31
key=G#5
lovel=0
offset=14749
sample=Xylophone_Soft_Mallets_Sustain_PP_G#4_RR2.opus
</region>

<region>
hivel=31
key=G#4
lovel=0
offset=14699
sample=Xylophone_Soft_Mallets_Sustain_PP_G#3_RR2.opus
</region>

<region>
hivel=31
key=F7
lovel=0
offset=16280
sample=Xylophone_Soft_Mallets_Sustain_PP_F6_RR2.opus
</region>

<region>
hivel=31
key=F6
lovel=0
offset=16691
sample=Xylophone_Soft_Mallets_Sustain_PP_F5_RR2.opus
</region>

<region>
hivel=31
key=F5
lovel=0
offset=13205
sample=Xylophone_Soft_Mallets_Sustain_PP_F4_RR2.opus
</region>

<region>
hivel=31
key=F4
lovel=0
offset=13280
sample=Xylophone_Soft_Mallets_Sustain_PP_F3_RR2.opus
</region>

<region>
hivel=31
key=F#7
lovel=0
offset=13356
sample=Xylophone_Soft_Mallets_Sustain_PP_F#6_RR2.opus
</region>

<region>
hivel=31
key=F#6
lovel=0
offset=14642
sample=Xylophone_Soft_Mallets_Sustain_PP_F#5_RR2.opus
</region>

<region>
hivel=31
key=F#5
lovel=0
offset=14777
sample=Xylophone_Soft_Mallets_Sustain_PP_F#4_RR2.opus
</region>

<region>
hivel=31
key=F#4
lovel=0
offset=12924
sample=Xylophone_Soft_Mallets_Sustain_PP_F#3_RR2.opus
</region>

<region>
hivel=31
key=E7
lovel=0
offset=15980
sample=Xylophone_Soft_Mallets_Sustain_PP_E6_RR2.opus
</region>

<region>
hivel=31
key=E6
lovel=0
offset=15719
sample=Xylophone_Soft_Mallets_Sustain_PP_E5_RR2.opus
</region>

<region>
hivel=31
key=E5
lovel=0
offset=15361
sample=Xylophone_Soft_Mallets_Sustain_PP_E4_RR2.opus
</region>

<region>
hivel=31
key=D7
lovel=0
offset=14716
sample=Xylophone_Soft_Mallets_Sustain_PP_D6_RR2.opus
</region>

<region>
hivel=31
key=D6
lovel=0
offset=14148
sample=Xylophone_Soft_Mallets_Sustain_PP_D5_RR2.opus
</region>

<region>
hivel=31
key=D5
lovel=0
offset=15304
sample=Xylophone_Soft_Mallets_Sustain_PP_D4_RR2.opus
</region>

<region>
hivel=31
key=D#7
lovel=0
offset=13764
sample=Xylophone_Soft_Mallets_Sustain_PP_D#6_RR2.opus
</region>

<region>
hivel=31
key=D#6
lovel=0
offset=15366
sample=Xylophone_Soft_Mallets_Sustain_PP_D#5_RR2.opus
</region>

<region>
hivel=31
key=D#5
lovel=0
offset=15185
sample=Xylophone_Soft_Mallets_Sustain_PP_D#4_RR2.opus
</region>

<region>
hivel=31
key=C8
lovel=0
offset=15243
sample=Xylophone_Soft_Mallets_Sustain_PP_C7_RR2.opus
</region>

<region>
hivel=31
key=C7
lovel=0
offset=15812
sample=Xylophone_Soft_Mallets_Sustain_PP_C6_RR2.opus
</region>

<region>
hivel=31
key=C6
lovel=0
offset=13711
sample=Xylophone_Soft_Mallets_Sustain_PP_C5_RR2.opus
</region>

<region>
hivel=31
key=C5
lovel=0
offset=14593
sample=Xylophone_Soft_Mallets_Sustain_PP_C4_RR2.opus
</region>

<region>
hivel=31
key=C#7
lovel=0
offset=15199
sample=Xylophone_Soft_Mallets_Sustain_PP_C#6_RR2.opus
</region>

<region>
hivel=31
key=C#6
lovel=0
offset=15440
sample=Xylophone_Soft_Mallets_Sustain_PP_C#5_RR2.opus
</region>

<region>
hivel=31
key=C#5
lovel=0
offset=13926
sample=Xylophone_Soft_Mallets_Sustain_PP_C#4_RR2.opus
</region>

<region>
hivel=31
key=B7
lovel=0
offset=14728
sample=Xylophone_Soft_Mallets_Sustain_PP_B6_RR2.opus
</region>

<region>
hivel=31
key=B6
lovel=0
offset=15253
sample=Xylophone_Soft_Mallets_Sustain_PP_B5_RR2.opus
</region>

<region>
hivel=31
key=B5
lovel=0
offset=15528
sample=Xylophone_Soft_Mallets_Sustain_PP_B4_RR2.opus
</region>

<region>
hivel=31
key=B4
lovel=0
offset=14881
sample=Xylophone_Soft_Mallets_Sustain_PP_B3_RR2.opus
</region>

<region>
hivel=31
key=A7
lovel=0
offset=14484
sample=Xylophone_Soft_Mallets_Sustain_PP_A6_RR2.opus
</region>

<region>
hivel=31
key=A6
lovel=0
offset=15401
sample=Xylophone_Soft_Mallets_Sustain_PP_A5_RR2.opus
</region>

<region>
hivel=31
key=A5
lovel=0
offset=15874
sample=Xylophone_Soft_Mallets_Sustain_PP_A4_RR2.opus
</region>

<region>
hivel=31
key=A4
lovel=0
offset=10342
sample=Xylophone_Soft_Mallets_Sustain_PP_A3_RR2.opus
</region>

<region>
hivel=31
key=A#7
lovel=0
offset=14700
sample=Xylophone_Soft_Mallets_Sustain_PP_A#6_RR2.opus
</region>

<region>
hivel=31
key=A#6
lovel=0
offset=15543
sample=Xylophone_Soft_Mallets_Sustain_PP_A#5_RR2.opus
</region>

<region>
hivel=31
key=A#5
lovel=0
offset=13935
sample=Xylophone_Soft_Mallets_Sustain_PP_A#4_RR2.opus
</region>

<region>
hivel=31
key=A#4
lovel=0
offset=15336
sample=Xylophone_Soft_Mallets_Sustain_PP_A#3_RR2.opus
</region>

<region>
hivel=63
key=G7
lovel=32
offset=9818
sample=Xylophone_Soft_Mallets_Sustain_MP_G6_RR2.opus
</region>

<region>
hivel=63
key=G6
lovel=32
sample=Xylophone_Soft_Mallets_Sustain_MP_G5_RR2.opus
</region>

<region>
hivel=63
key=G5
lovel=32
sample=Xylophone_Soft_Mallets_Sustain_MP_G4_RR2.opus
</region>

<region>
hivel=63
key=G4
lovel=32
sample=Xylophone_Soft_Mallets_Sustain_MP_G3_RR2.opus
</region>

<region>
hivel=63
key=G#7
lovel=32
offset=9415
sample=Xylophone_Soft_Mallets_Sustain_MP_G#6_RR2.opus
</region>

<region>
hivel=63
key=G#6
lovel=32
offset=3542
sample=Xylophone_Soft_Mallets_Sustain_MP_G#5_RR2.opus
</region>

<region>
hivel=63
key=G#5
lovel=32
sample=Xylophone_Soft_Mallets_Sustain_MP_G#4_RR2.opus
</region>

<region>
hivel=63
key=G#4
lovel=32
sample=Xylophone_Soft_Mallets_Sustain_MP_G#3_RR2.opus
</region>

<region>
hivel=63
key=F7
lovel=32
offset=11320
sample=Xylophone_Soft_Mallets_Sustain_MP_F6_RR2.opus
</region>

<region>
hivel=63
key=F6
lovel=32
sample=Xylophone_Soft_Mallets_Sustain_MP_F5_RR2.opus
</region>

<region>
hivel=63
key=F5
lovel=32
sample=Xylophone_Soft_Mallets_Sustain_MP_F4_RR2.opus
</region>

<region>
hivel=63
key=F4
lovel=32
offset=12254
sample=Xylophone_Soft_Mallets_Sustain_MP_F3_RR2.opus
</region>

<region>
hivel=63
key=F#7
lovel=32
offset=9350
sample=Xylophone_Soft_Mallets_Sustain_MP_F#6_RR2.opus
</region>

<region>
hivel=63
key=F#6
lovel=32
sample=Xylophone_Soft_Mallets_Sustain_MP_F#5_RR2.opus
</region>

<region>
hivel=63
key=F#5
lovel=32
sample=Xylophone_Soft_Mallets_Sustain_MP_F#4_RR2.opus
</region>

<region>
hivel=63
key=F#4
lovel=32
offset=10620
sample=Xylophone_Soft_Mallets_Sustain_MP_F#3_RR2.opus
</region>

<region>
hivel=63
key=E7
lovel=32
offset=11033
sample=Xylophone_Soft_Mallets_Sustain_MP_E6_RR2.opus
</region>

<region>
hivel=63
key=E6
lovel=32
sample=Xylophone_Soft_Mallets_Sustain_MP_E5_RR2.opus
</region>

<region>
hivel=63
key=E5
lovel=32
sample=Xylophone_Soft_Mallets_Sustain_MP_E4_RR2.opus
</region>

<region>
hivel=63
key=D7
lovel=32
offset=10413
sample=Xylophone_Soft_Mallets_Sustain_MP_D6_RR2.opus
</region>

<region>
hivel=63
key=D6
lovel=32
sample=Xylophone_Soft_Mallets_Sustain_MP_D5_RR2.opus
</region>

<region>
hivel=63
key=D5
lovel=32
sample=Xylophone_Soft_Mallets_Sustain_MP_D4_RR2.opus
</region>

<region>
hivel=63
key=D#7
lovel=32
offset=9942
sample=Xylophone_Soft_Mallets_Sustain_MP_D#6_RR2.opus
</region>

<region>
hivel=63
key=D#6
lovel=32
sample=Xylophone_Soft_Mallets_Sustain_MP_D#5_RR2.opus
</region>

<region>
hivel=63
key=D#5
lovel=32
sample=Xylophone_Soft_Mallets_Sustain_MP_D#4_RR2.opus
</region>

<region>
hivel=63
key=C8
lovel=32
offset=10903
sample=Xylophone_Soft_Mallets_Sustain_MP_C7_RR2.opus
</region>

<region>
hivel=63
key=C7
lovel=32
offset=10643
sample=Xylophone_Soft_Mallets_Sustain_MP_C6_RR2.opus
</region>

<region>
hivel=63
key=C6
lovel=32
sample=Xylophone_Soft_Mallets_Sustain_MP_C5_RR2.opus
</region>

<region>
hivel=63
key=C5
lovel=32
sample=Xylophone_Soft_Mallets_Sustain_MP_C4_RR2.opus
</region>

<region>
hivel=63
key=C#7
lovel=32
offset=11016
sample=Xylophone_Soft_Mallets_Sustain_MP_C#6_RR2.opus
</region>

<region>
hivel=63
key=C#6
lovel=32
sample=Xylophone_Soft_Mallets_Sustain_MP_C#5_RR2.opus
</region>

<region>
hivel=63
key=C#5
lovel=32
sample=Xylophone_Soft_Mallets_Sustain_MP_C#4_RR2.opus
</region>

<region>
hivel=63
key=B7
lovel=32
offset=10701
sample=Xylophone_Soft_Mallets_Sustain_MP_B6_RR2.opus
</region>

<region>
hivel=63
key=B6
lovel=32
offset=6387
sample=Xylophone_Soft_Mallets_Sustain_MP_B5_RR2.opus
</region>

<region>
hivel=63
key=B5
lovel=32
sample=Xylophone_Soft_Mallets_Sustain_MP_B4_RR2.opus
</region>

<region>
hivel=63
key=B4
lovel=32
sample=Xylophone_Soft_Mallets_Sustain_MP_B3_RR2.opus
</region>

<region>
hivel=63
key=A7
lovel=32
offset=10266
sample=Xylophone_Soft_Mallets_Sustain_MP_A6_RR2.opus
</region>

<region>
hivel=63
key=A6
lovel=32
sample=Xylophone_Soft_Mallets_Sustain_MP_A5_RR2.opus
</region>

<region>
hivel=63
key=A5
lovel=32
sample=Xylophone_Soft_Mallets_Sustain_MP_A4_RR2.opus
</region>

<region>
hivel=63
key=A4
lovel=32
sample=Xylophone_Soft_Mallets_Sustain_MP_A3_RR2.opus
</region>

<region>
hivel=63
key=A#7
lovel=32
offset=12868
sample=Xylophone_Soft_Mallets_Sustain_MP_A#6_RR2.opus
</region>

<region>
hivel=63
key=A#6
lovel=32
sample=Xylophone_Soft_Mallets_Sustain_MP_A#5_RR2.opus
</region>

<region>
hivel=63
key=A#5
lovel=32
sample=Xylophone_Soft_Mallets_Sustain_MP_A#4_RR2.opus
</region>

<region>
hivel=63
key=A#4
lovel=32
sample=Xylophone_Soft_Mallets_Sustain_MP_A#3_RR2.opus
</region>

<region>
hivel=95
key=G7
lovel=64
offset=13810
sample=Xylophone_Soft_Mallets_Sustain_MF_G6_RR2.opus
</region>

<region>
hivel=95
key=G6
lovel=64
sample=Xylophone_Soft_Mallets_Sustain_MF_G5_RR2.opus
</region>

<region>
hivel=95
key=G5
lovel=64
sample=Xylophone_Soft_Mallets_Sustain_MF_G4_RR2.opus
</region>

<region>
hivel=95
key=G4
lovel=64
sample=Xylophone_Soft_Mallets_Sustain_MF_G3_RR2.opus
</region>

<region>
hivel=95
key=G#7
lovel=64
offset=12749
sample=Xylophone_Soft_Mallets_Sustain_MF_G#6_RR2.opus
</region>

<region>
hivel=95
key=G#6
lovel=64
sample=Xylophone_Soft_Mallets_Sustain_MF_G#5_RR2.opus
</region>

<region>
hivel=95
key=G#5
lovel=64
sample=Xylophone_Soft_Mallets_Sustain_MF_G#4_RR2.opus
</region>

<region>
hivel=95
key=G#4
lovel=64
sample=Xylophone_Soft_Mallets_Sustain_MF_G#3_RR2.opus
</region>

<region>
hivel=95
key=F7
lovel=64
offset=13575
sample=Xylophone_Soft_Mallets_Sustain_MF_F6_RR2.opus
</region>

<region>
hivel=95
key=F6
lovel=64
sample=Xylophone_Soft_Mallets_Sustain_MF_F5_RR2.opus
</region>

<region>
hivel=95
key=F5
lovel=64
sample=Xylophone_Soft_Mallets_Sustain_MF_F4_RR2.opus
</region>

<region>
hivel=95
key=F4
lovel=64
sample=Xylophone_Soft_Mallets_Sustain_MF_F3_RR2.opus
</region>

<region>
hivel=95
key=F#7
lovel=64
offset=14310
sample=Xylophone_Soft_Mallets_Sustain_MF_F#6_RR2.opus
</region>

<region>
hivel=95
key=F#6
lovel=64
sample=Xylophone_Soft_Mallets_Sustain_MF_F#5_RR2.opus
</region>

<region>
hivel=95
key=F#5
lovel=64
sample=Xylophone_Soft_Mallets_Sustain_MF_F#4_RR2.opus
</region>

<region>
hivel=95
key=F#4
lovel=64
offset=14148
sample=Xylophone_Soft_Mallets_Sustain_MF_F#3_RR2.opus
</region>

<region>
hivel=95
key=E7
lovel=64
sample=Xylophone_Soft_Mallets_Sustain_MF_E6_RR2.opus
</region>

<region>
hivel=95
key=E6
lovel=64
sample=Xylophone_Soft_Mallets_Sustain_MF_E5_RR2.opus
</region>

<region>
hivel=95
key=E5
lovel=64
sample=Xylophone_Soft_Mallets_Sustain_MF_E4_RR2.opus
</region>

<region>
hivel=95
key=D7
lovel=64
offset=11604
sample=Xylophone_Soft_Mallets_Sustain_MF_D6_RR2.opus
</region>

<region>
hivel=95
key=D6
lovel=64
sample=Xylophone_Soft_Mallets_Sustain_MF_D5_RR2.opus
</region>

<region>
hivel=95
key=D5
lovel=64
sample=Xylophone_Soft_Mallets_Sustain_MF_D4_RR2.opus
</region>

<region>
hivel=95
key=D#7
lovel=64
offset=12731
sample=Xylophone_Soft_Mallets_Sustain_MF_D#6_RR2.opus
</region>

<region>
hivel=95
key=D#6
lovel=64
offset=12716
sample=Xylophone_Soft_Mallets_Sustain_MF_D#5_RR2.opus
</region>

<region>
hivel=95
key=D#5
lovel=64
sample=Xylophone_Soft_Mallets_Sustain_MF_D#4_RR2.opus
</region>

<region>
hivel=95
key=C8
lovel=64
offset=12623
sample=Xylophone_Soft_Mallets_Sustain_MF_C7_RR2.opus
</region>

<region>
hivel=95
key=C7
lovel=64
offset=8713
sample=Xylophone_Soft_Mallets_Sustain_MF_C6_RR2.opus
</region>

<region>
hivel=95
key=C6
lovel=64
sample=Xylophone_Soft_Mallets_Sustain_MF_C5_RR2.opus
</region>

<region>
hivel=95
key=C5
lovel=64
sample=Xylophone_Soft_Mallets_Sustain_MF_C4_RR2.opus
</region>

<region>
hivel=95
key=C#7
lovel=64
offset=7612
sample=Xylophone_Soft_Mallets_Sustain_MF_C#6_RR2.opus
</region>

<region>
hivel=95
key=C#6
lovel=64
sample=Xylophone_Soft_Mallets_Sustain_MF_C#5_RR2.opus
</region>

<region>
hivel=95
key=C#5
lovel=64
sample=Xylophone_Soft_Mallets_Sustain_MF_C#4_RR2.opus
</region>

<region>
hivel=95
key=B7
lovel=64
offset=13760
sample=Xylophone_Soft_Mallets_Sustain_MF_B6_RR2.opus
</region>

<region>
hivel=95
key=B6
lovel=64
sample=Xylophone_Soft_Mallets_Sustain_MF_B5_RR2.opus
</region>

<region>
hivel=95
key=B5
lovel=64
sample=Xylophone_Soft_Mallets_Sustain_MF_B4_RR2.opus
</region>

<region>
hivel=95
key=B4
lovel=64
sample=Xylophone_Soft_Mallets_Sustain_MF_B3_RR2.opus
</region>

<region>
hivel=95
key=A7
lovel=64
offset=12900
sample=Xylophone_Soft_Mallets_Sustain_MF_A6_RR2.opus
</region>

<region>
hivel=95
key=A6
lovel=64
sample=Xylophone_Soft_Mallets_Sustain_MF_A5_RR2.opus
</region>

<region>
hivel=95
key=A5
lovel=64
sample=Xylophone_Soft_Mallets_Sustain_MF_A4_RR2.opus
</region>

<region>
hivel=95
key=A4
lovel=64
sample=Xylophone_Soft_Mallets_Sustain_MF_A3_RR2.opus
</region>

<region>
hivel=95
key=A#7
lovel=64
offset=13665
sample=Xylophone_Soft_Mallets_Sustain_MF_A#6_RR2.opus
</region>

<region>
hivel=95
key=A#6
lovel=64
sample=Xylophone_Soft_Mallets_Sustain_MF_A#5_RR2.opus
</region>

<region>
hivel=95
key=A#5
lovel=64
sample=Xylophone_Soft_Mallets_Sustain_MF_A#4_RR2.opus
</region>

<region>
hivel=95
key=A#4
lovel=64
sample=Xylophone_Soft_Mallets_Sustain_MF_A#3_RR2.opus
</region>

<region>
hivel=127
key=G7
lovel=96
offset=15152
sample=Xylophone_Soft_Mallets_Sustain_FF_G6_RR2.opus
</region>

<region>
hivel=127
key=G6
lovel=96
sample=Xylophone_Soft_Mallets_Sustain_FF_G5_RR2.opus
</region>

<region>
hivel=127
key=G5
lovel=96
sample=Xylophone_Soft_Mallets_Sustain_FF_G4_RR2.opus
</region>

<region>
hivel=127
key=G4
lovel=96
sample=Xylophone_Soft_Mallets_Sustain_FF_G3_RR2.opus
</region>

<region>
hivel=127
key=G#7
lovel=96
sample=Xylophone_Soft_Mallets_Sustain_FF_G#6_RR2.opus
</region>

<region>
hivel=127
key=G#6
lovel=96
sample=Xylophone_Soft_Mallets_Sustain_FF_G#5_RR2.opus
</region>

<region>
hivel=127
key=G#5
lovel=96
sample=Xylophone_Soft_Mallets_Sustain_FF_G#4_RR2.opus
</region>

<region>
hivel=127
key=G#4
lovel=96
sample=Xylophone_Soft_Mallets_Sustain_FF_G#3_RR2.opus
</region>

<region>
hivel=127
key=F7
lovel=96
offset=15723
sample=Xylophone_Soft_Mallets_Sustain_FF_F6_RR2.opus
</region>

<region>
hivel=127
key=F6
lovel=96
sample=Xylophone_Soft_Mallets_Sustain_FF_F5_RR2.opus
</region>

<region>
hivel=127
key=F5
lovel=96
sample=Xylophone_Soft_Mallets_Sustain_FF_F4_RR2.opus
</region>

<region>
hivel=127
key=F4
lovel=96
sample=Xylophone_Soft_Mallets_Sustain_FF_F3_RR2.opus
</region>

<region>
hivel=127
key=F#7
lovel=96
offset=14134
sample=Xylophone_Soft_Mallets_Sustain_FF_F#6_RR2.opus
</region>

<region>
hivel=127
key=F#6
lovel=96
sample=Xylophone_Soft_Mallets_Sustain_FF_F#5_RR2.opus
</region>

<region>
hivel=127
key=F#5
lovel=96
sample=Xylophone_Soft_Mallets_Sustain_FF_F#4_RR2.opus
</region>

<region>
hivel=127
key=F#4
lovel=96
sample=Xylophone_Soft_Mallets_Sustain_FF_F#3_RR2.opus
</region>

<region>
hivel=127
key=E7
lovel=96
sample=Xylophone_Soft_Mallets_Sustain_FF_E6_RR2.opus
</region>

<region>
hivel=127
key=E6
lovel=96
sample=Xylophone_Soft_Mallets_Sustain_FF_E5_RR2.opus
</region>

<region>
hivel=127
key=E5
lovel=96
sample=Xylophone_Soft_Mallets_Sustain_FF_E4_RR2.opus
</region>

<region>
hivel=127
key=D7
lovel=96
sample=Xylophone_Soft_Mallets_Sustain_FF_D6_RR2.opus
</region>

<region>
hivel=127
key=D6
lovel=96
sample=Xylophone_Soft_Mallets_Sustain_FF_D5_RR2.opus
</region>

<region>
hivel=127
key=D5
lovel=96
sample=Xylophone_Soft_Mallets_Sustain_FF_D4_RR2.opus
</region>

<region>
hivel=127
key=D#7
lovel=96
sample=Xylophone_Soft_Mallets_Sustain_FF_D#6_RR2.opus
</region>

<region>
hivel=127
key=D#6
lovel=96
sample=Xylophone_Soft_Mallets_Sustain_FF_D#5_RR2.opus
</region>

<region>
hivel=127
key=D#5
lovel=96
sample=Xylophone_Soft_Mallets_Sustain_FF_D#4_RR2.opus
</region>

<region>
hivel=127
key=C8
lovel=96
offset=11185
sample=Xylophone_Soft_Mallets_Sustain_FF_C7_RR2.opus
</region>

<region>
hivel=127
key=C7
lovel=96
sample=Xylophone_Soft_Mallets_Sustain_FF_C6_RR2.opus
</region>

<region>
hivel=127
key=C6
lovel=96
sample=Xylophone_Soft_Mallets_Sustain_FF_C5_RR2.opus
</region>

<region>
hivel=127
key=C5
lovel=96
sample=Xylophone_Soft_Mallets_Sustain_FF_C4_RR2.opus
</region>

<region>
hivel=127
key=C#7
lovel=96
sample=Xylophone_Soft_Mallets_Sustain_FF_C#6_RR2.opus
</region>

<region>
hivel=127
key=C#6
lovel=96
sample=Xylophone_Soft_Mallets_Sustain_FF_C#5_RR2.opus
</region>

<region>
hivel=127
key=C#5
lovel=96
sample=Xylophone_Soft_Mallets_Sustain_FF_C#4_RR2.opus
</region>

<region>
hivel=127
key=B7
lovel=96
offset=5190
sample=Xylophone_Soft_Mallets_Sustain_FF_B6_RR2.opus
</region>

<region>
hivel=127
key=B6
lovel=96
sample=Xylophone_Soft_Mallets_Sustain_FF_B5_RR2.opus
</region>

<region>
hivel=127
key=B5
lovel=96
sample=Xylophone_Soft_Mallets_Sustain_FF_B4_RR2.opus
</region>

<region>
hivel=127
key=B4
lovel=96
sample=Xylophone_Soft_Mallets_Sustain_FF_B3_RR2.opus
</region>

<region>
hivel=127
key=A7
lovel=96
sample=Xylophone_Soft_Mallets_Sustain_FF_A6_RR2.opus
</region>

<region>
hivel=127
key=A6
lovel=96
sample=Xylophone_Soft_Mallets_Sustain_FF_A5_RR2.opus
</region>

<region>
hivel=127
key=A5
lovel=96
sample=Xylophone_Soft_Mallets_Sustain_FF_A4_RR2.opus
</region>

<region>
hivel=127
key=A4
lovel=96
sample=Xylophone_Soft_Mallets_Sustain_FF_A3_RR2.opus
</region>

<region>
hivel=127
key=A#7
lovel=96
offset=7794
sample=Xylophone_Soft_Mallets_Sustain_FF_A#6_RR2.opus
</region>

<region>
hivel=127
key=A#6
lovel=96
sample=Xylophone_Soft_Mallets_Sustain_FF_A#5_RR2.opus
</region>

<region>
hivel=127
key=A#5
lovel=96
sample=Xylophone_Soft_Mallets_Sustain_FF_A#4_RR2.opus
</region>

<region>
hivel=127
key=A#4
lovel=96
sample=Xylophone_Soft_Mallets_Sustain_FF_A#3_RR2.opus
</region>
</group>

<group>
group_label=RR3
seq_length=3
seq_position=3

<region>
hivel=31
key=G7
lovel=0
offset=14732
sample=Xylophone_Soft_Mallets_Sustain_PP_G6_RR3.opus
</region>

<region>
hivel=31
key=G6
lovel=0
offset=15726
sample=Xylophone_Soft_Mallets_Sustain_PP_G5_RR3.opus
</region>

<region>
hivel=31
key=G5
lovel=0
offset=15049
sample=Xylophone_Soft_Mallets_Sustain_PP_G4_RR3.opus
</region>

<region>
hivel=31
key=G4
lovel=0
offset=14852
sample=Xylophone_Soft_Mallets_Sustain_PP_G3_RR3.opus
</region>

<region>
hivel=31
key=G#7
lovel=0
offset=15671
sample=Xylophone_Soft_Mallets_Sustain_PP_G#6_RR3.opus
</region>

<region>
hivel=31
key=G#6
lovel=0
offset=14470
sample=Xylophone_Soft_Mallets_Sustain_PP_G#5_RR3.opus
</region>

<region>
hivel=31
key=G#5
lovel=0
offset=12952
sample=Xylophone_Soft_Mallets_Sustain_PP_G#4_RR3.opus
</region>

<region>
hivel=31
key=G#4
lovel=0
offset=14535
sample=Xylophone_Soft_Mallets_Sustain_PP_G#3_RR3.opus
</region>

<region>
hivel=31
key=F7
lovel=0
offset=17009
sample=Xylophone_Soft_Mallets_Sustain_PP_F6_RR3.opus
</region>

<region>
hivel=31
key=F6
lovel=0
offset=15053
sample=Xylophone_Soft_Mallets_Sustain_PP_F5_RR3.opus
</region>

<region>
hivel=31
key=F5
lovel=0
offset=13032
sample=Xylophone_Soft_Mallets_Sustain_PP_F4_RR3.opus
</region>

<region>
hivel=31
key=F4
lovel=0
offset=16159
sample=Xylophone_Soft_Mallets_Sustain_PP_F3_RR3.opus
</region>

<region>
hivel=31
key=F#7
lovel=0
offset=15842
sample=Xylophone_Soft_Mallets_Sustain_PP_F#6_RR3.opus
</region>

<region>
hivel=31
key=F#6
lovel=0
offset=14043
sample=Xylophone_Soft_Mallets_Sustain_PP_F#5_RR3.opus
</region>

<region>
hivel=31
key=F#5
lovel=0
offset=13650
sample=Xylophone_Soft_Mallets_Sustain_PP_F#4_RR3.opus
</region>

<region>
hivel=31
key=F#4
lovel=0
offset=15241
sample=Xylophone_Soft_Mallets_Sustain_PP_F#3_RR3.opus
</region>

<region>
hivel=31
key=E6
lovel=0
offset=16326
sample=Xylophone_Soft_Mallets_Sustain_PP_E5_RR3.opus
</region>

<region>
hivel=31
key=E5
lovel=0
offset=14952
sample=Xylophone_Soft_Mallets_Sustain_PP_E4_RR3.opus
</region>

<region>
hivel=31
key=D7
lovel=0
offset=14482
sample=Xylophone_Soft_Mallets_Sustain_PP_D6_RR3.opus
</region>

<region>
hivel=31
key=D6
lovel=0
offset=14499
sample=Xylophone_Soft_Mallets_Sustain_PP_D5_RR3.opus
</region>

<region>
hivel=31
key=D5
lovel=0
offset=13202
sample=Xylophone_Soft_Mallets_Sustain_PP_D4_RR3.opus
</region>

<region>
hivel=31
key=D#7
lovel=0
offset=14591
sample=Xylophone_Soft_Mallets_Sustain_PP_D#6_RR3.opus
</region>

<region>
hivel=31
key=D#6
lovel=0
offset=13150
sample=Xylophone_Soft_Mallets_Sustain_PP_D#5_RR3.opus
</region>

<region>
hivel=31
key=D#5
lovel=0
offset=14255
sample=Xylophone_Soft_Mallets_Sustain_PP_D#4_RR3.opus
</region>

<region>
hivel=31
key=C8
lovel=0
offset=15102
sample=Xylophone_Soft_Mallets_Sustain_PP_C7_RR3.opus
</region>

<region>
hivel=31
key=C7
lovel=0
offset=16186
sample=Xylophone_Soft_Mallets_Sustain_PP_C6_RR3.opus
</region>

<region>
hivel=31
key=C6
lovel=0
offset=16037
sample=Xylophone_Soft_Mallets_Sustain_PP_C5_RR3.opus
</region>

<region>
hivel=31
key=C5
lovel=0
offset=16478
sample=Xylophone_Soft_Mallets_Sustain_PP_C4_RR3.opus
</region>

<region>
hivel=31
key=C#7
lovel=0
offset=14025
sample=Xylophone_Soft_Mallets_Sustain_PP_C#6_RR3.opus
</region>

<region>
hivel=31
key=C#6
lovel=0
offset=14397
sample=Xylophone_Soft_Mallets_Sustain_PP_C#5_RR3.opus
</region>

<region>
hivel=31
key=C#5
lovel=0
offset=16428
sample=Xylophone_Soft_Mallets_Sustain_PP_C#4_RR3.opus
</region>

<region>
hivel=31
key=B7
lovel=0
offset=16456
sample=Xylophone_Soft_Mallets_Sustain_PP_B6_RR3.opus
</region>

<region>
hivel=31
key=B6
lovel=0
offset=15406
sample=Xylophone_Soft_Mallets_Sustain_PP_B5_RR3.opus
</region>

<region>
hivel=31
key=B5
lovel=0
offset=15881
sample=Xylophone_Soft_Mallets_Sustain_PP_B4_RR3.opus
</region>

<region>
hivel=31
key=B4
lovel=0
offset=12546
sample=Xylophone_Soft_Mallets_Sustain_PP_B3_RR3.opus
</region>

<region>
hivel=31
key=A7
lovel=0
offset=13737
sample=Xylophone_Soft_Mallets_Sustain_PP_A6_RR3.opus
</region>

<region>
hivel=31
key=A6
lovel=0
offset=14021
sample=Xylophone_Soft_Mallets_Sustain_PP_A5_RR3.opus
</region>

<region>
hivel=31
key=A5
lovel=0
offset=13253
sample=Xylophone_Soft_Mallets_Sustain_PP_A4_RR3.opus
</region>

<region>
hivel=31
key=A4
lovel=0
offset=15044
sample=Xylophone_Soft_Mallets_Sustain_PP_A3_RR3.opus
</region>

<region>
hivel=31
key=A#7
lovel=0
offset=14390
sample=Xylophone_Soft_Mallets_Sustain_PP_A#6_RR3.opus
</region>

<region>
hivel=31
key=A#6
lovel=0
offset=15087
sample=Xylophone_Soft_Mallets_Sustain_PP_A#5_RR3.opus
</region>

<region>
hivel=31
key=A#5
lovel=0
offset=14005
sample=Xylophone_Soft_Mallets_Sustain_PP_A#4_RR3.opus
</region>

<region>
hivel=31
key=A#4
lovel=0
offset=14741
sample=Xylophone_Soft_Mallets_Sustain_PP_A#3_RR3.opus
</region>

<region>
hivel=63
key=G7
lovel=32
offset=11668
sample=Xylophone_Soft_Mallets_Sustain_MP_G6_RR3.opus
</region>

<region>
hivel=63
key=G6
lovel=32
sample=Xylophone_Soft_Mallets_Sustain_MP_G5_RR3.opus
</region>

<region>
hivel=63
key=G5
lovel=32
sample=Xylophone_Soft_Mallets_Sustain_MP_G4_RR3.opus
</region>

<region>
hivel=63
key=G4
lovel=32
sample=Xylophone_Soft_Mallets_Sustain_MP_G3_RR3.opus
</region>

<region>
hivel=63
key=G#7
lovel=32
offset=12748
sample=Xylophone_Soft_Mallets_Sustain_MP_G#6_RR3.opus
</region>

<region>
hivel=63
key=G#6
lovel=32
offset=2149
sample=Xylophone_Soft_Mallets_Sustain_MP_G#5_RR3.opus
</region>

<region>
hivel=63
key=G#5
lovel=32
sample=Xylophone_Soft_Mallets_Sustain_MP_G#4_RR3.opus
</region>

<region>
hivel=63
key=G#4
lovel=32
sample=Xylophone_Soft_Mallets_Sustain_MP_G#3_RR3.opus
</region>

<region>
hivel=63
key=F7
lovel=32
offset=10786
sample=Xylophone_Soft_Mallets_Sustain_MP_F6_RR3.opus
</region>

<region>
hivel=63
key=F6
lovel=32
sample=Xylophone_Soft_Mallets_Sustain_MP_F5_RR3.opus
</region>

<region>
hivel=63
key=F5
lovel=32
sample=Xylophone_Soft_Mallets_Sustain_MP_F4_RR3.opus
</region>

<region>
hivel=63
key=F4
lovel=32
offset=11001
sample=Xylophone_Soft_Mallets_Sustain_MP_F3_RR3.opus
</region>

<region>
hivel=63
key=F#7
lovel=32
offset=9743
sample=Xylophone_Soft_Mallets_Sustain_MP_F#6_RR3.opus
</region>

<region>
hivel=63
key=F#6
lovel=32
sample=Xylophone_Soft_Mallets_Sustain_MP_F#5_RR3.opus
</region>

<region>
hivel=63
key=F#5
lovel=32
sample=Xylophone_Soft_Mallets_Sustain_MP_F#4_RR3.opus
</region>

<region>
hivel=63
key=F#4
lovel=32
offset=11330
sample=Xylophone_Soft_Mallets_Sustain_MP_F#3_RR3.opus
</region>

<region>
hivel=63
key=E6
lovel=32
sample=Xylophone_Soft_Mallets_Sustain_MP_E5_RR3.opus
</region>

<region>
hivel=63
key=E5
lovel=32
sample=Xylophone_Soft_Mallets_Sustain_MP_E4_RR3.opus
</region>

<region>
hivel=63
key=D7
lovel=32
offset=10845
sample=Xylophone_Soft_Mallets_Sustain_MP_D6_RR3.opus
</region>

<region>
hivel=63
key=D6
lovel=32
sample=Xylophone_Soft_Mallets_Sustain_MP_D5_RR3.opus
</region>

<region>
hivel=63
key=D5
lovel=32
sample=Xylophone_Soft_Mallets_Sustain_MP_D4_RR3.opus
</region>

<region>
hivel=63
key=D#7
lovel=32
offset=9824
sample=Xylophone_Soft_Mallets_Sustain_MP_D#6_RR3.opus
</region>

<region>
hivel=63
key=D#6
lovel=32
sample=Xylophone_Soft_Mallets_Sustain_MP_D#5_RR3.opus
</region>

<region>
hivel=63
key=D#5
lovel=32
sample=Xylophone_Soft_Mallets_Sustain_MP_D#4_RR3.opus
</region>

<region>
hivel=63
key=C8
lovel=32
offset=9143
sample=Xylophone_Soft_Mallets_Sustain_MP_C7_RR3.opus
</region>

<region>
hivel=63
key=C7
lovel=32
offset=9755
sample=Xylophone_Soft_Mallets_Sustain_MP_C6_RR3.opus
</region>

<region>
hivel=63
key=C6
lovel=32
sample=Xylophone_Soft_Mallets_Sustain_MP_C5_RR3.opus
</region>

<region>
hivel=63
key=C5
lovel=32
sample=Xylophone_Soft_Mallets_Sustain_MP_C4_RR3.opus
</region>

<region>
hivel=63
key=C#7
lovel=32
offset=10007
sample=Xylophone_Soft_Mallets_Sustain_MP_C#6_RR3.opus
</region>

<region>
hivel=63
key=C#6
lovel=32
sample=Xylophone_Soft_Mallets_Sustain_MP_C#5_RR3.opus
</region>

<region>
hivel=63
key=C#5
lovel=32
sample=Xylophone_Soft_Mallets_Sustain_MP_C#4_RR3.opus
</region>

<region>
hivel=63
key=B7
lovel=32
offset=10599
sample=Xylophone_Soft_Mallets_Sustain_MP_B6_RR3.opus
</region>

<region>
hivel=63
key=B6
lovel=32
offset=9206
sample=Xylophone_Soft_Mallets_Sustain_MP_B5_RR3.opus
</region>

<region>
hivel=63
key=B5
lovel=32
sample=Xylophone_Soft_Mallets_Sustain_MP_B4_RR3.opus
</region>

<region>
hivel=63
key=B4
lovel=32
sample=Xylophone_Soft_Mallets_Sustain_MP_B3_RR3.opus
</region>

<region>
hivel=63
key=A7
lovel=32
offset=10156
sample=Xylophone_Soft_Mallets_Sustain_MP_A6_RR3.opus
</region>

<region>
hivel=63
key=A6
lovel=32
offset=6732
sample=Xylophone_Soft_Mallets_Sustain_MP_A5_RR3.opus
</region>

<region>
hivel=63
key=A5
lovel=32
sample=Xylophone_Soft_Mallets_Sustain_MP_A4_RR3.opus
</region>

<region>
hivel=63
key=A4
lovel=32
sample=Xylophone_Soft_Mallets_Sustain_MP_A3_RR3.opus
</region>

<region>
hivel=63
key=A#7
lovel=32
offset=10791
sample=Xylophone_Soft_Mallets_Sustain_MP_A#6_RR3.opus
</region>

<region>
hivel=63
key=A#6
lovel=32
sample=Xylophone_Soft_Mallets_Sustain_MP_A#5_RR3.opus
</region>

<region>
hivel=63
key=A#5
lovel=32
sample=Xylophone_Soft_Mallets_Sustain_MP_A#4_RR3.opus
</region>

<region>
hivel=63
key=A#4
lovel=32
sample=Xylophone_Soft_Mallets_Sustain_MP_A#3_RR3.opus
</region>

<region>
hivel=95
key=G7
lovel=64
offset=13395
sample=Xylophone_Soft_Mallets_Sustain_MF_G6_RR3.opus
</region>

<region>
hivel=95
key=G6
lovel=64
sample=Xylophone_Soft_Mallets_Sustain_MF_G5_RR3.opus
</region>

<region>
hivel=95
key=G5
lovel=64
sample=Xylophone_Soft_Mallets_Sustain_MF_G4_RR3.opus
</region>

<region>
hivel=95
key=G4
lovel=64
sample=Xylophone_Soft_Mallets_Sustain_MF_G3_RR3.opus
</region>

<region>
hivel=95
key=G#7
lovel=64
sample=Xylophone_Soft_Mallets_Sustain_MF_G#6_RR3.opus
</region>

<region>
hivel=95
key=G#6
lovel=64
sample=Xylophone_Soft_Mallets_Sustain_MF_G#5_RR3.opus
</region>

<region>
hivel=95
key=G#5
lovel=64
sample=Xylophone_Soft_Mallets_Sustain_MF_G#4_RR3.opus
</region>

<region>
hivel=95
key=G#4
lovel=64
sample=Xylophone_Soft_Mallets_Sustain_MF_G#3_RR3.opus
</region>

<region>
hivel=95
key=F7
lovel=64
sample=Xylophone_Soft_Mallets_Sustain_MF_F6_RR3.opus
</region>

<region>
hivel=95
key=F6
lovel=64
sample=Xylophone_Soft_Mallets_Sustain_MF_F5_RR3.opus
</region>

<region>
hivel=95
key=F5
lovel=64
sample=Xylophone_Soft_Mallets_Sustain_MF_F4_RR3.opus
</region>

<region>
hivel=95
key=F4
lovel=64
sample=Xylophone_Soft_Mallets_Sustain_MF_F3_RR3.opus
</region>

<region>
hivel=95
key=F#7
lovel=64
offset=12565
sample=Xylophone_Soft_Mallets_Sustain_MF_F#6_RR3.opus
</region>

<region>
hivel=95
key=F#6
lovel=64
sample=Xylophone_Soft_Mallets_Sustain_MF_F#5_RR3.opus
</region>

<region>
hivel=95
key=F#5
lovel=64
sample=Xylophone_Soft_Mallets_Sustain_MF_F#4_RR3.opus
</region>

<region>
hivel=95
key=F#4
lovel=64
sample=Xylophone_Soft_Mallets_Sustain_MF_F#3_RR3.opus
</region>

<region>
hivel=95
key=E7
lovel=64
offset=7551
sample=Xylophone_Soft_Mallets_Sustain_MF_E6_RR3.opus
</region>

<region>
hivel=95
key=E6
lovel=64
sample=Xylophone_Soft_Mallets_Sustain_MF_E5_RR3.opus
</region>

<region>
hivel=95
key=E5
lovel=64
sample=Xylophone_Soft_Mallets_Sustain_MF_E4_RR3.opus
</region>

<region>
hivel=95
key=D7
lovel=64
offset=15101
sample=Xylophone_Soft_Mallets_Sustain_MF_D6_RR3.opus
</region>

<region>
hivel=95
key=D6
lovel=64
sample=Xylophone_Soft_Mallets_Sustain_MF_D5_RR3.opus
</region>

<region>
hivel=95
key=D5
lovel=64
sample=Xylophone_Soft_Mallets_Sustain_MF_D4_RR3.opus
</region>

<region>
hivel=95
key=D#7
lovel=64
offset=14258
sample=Xylophone_Soft_Mallets_Sustain_MF_D#6_RR3.opus
</region>

<region>
hivel=95
key=D#6
lovel=64
sample=Xylophone_Soft_Mallets_Sustain_MF_D#5_RR3.opus
</region>

<region>
hivel=95
key=D#5
lovel=64
sample=Xylophone_Soft_Mallets_Sustain_MF_D#4_RR3.opus
</region>

<region>
hivel=95
key=C8
lovel=64
offset=12258
sample=Xylophone_Soft_Mallets_Sustain_MF_C7_RR3.opus
</region>

<region>
hivel=95
key=C7
lovel=64
offset=1668
sample=Xylophone_Soft_Mallets_Sustain_MF_C6_RR3.opus
</region>

<region>
hivel=95
key=C6
lovel=64
sample=Xylophone_Soft_Mallets_Sustain_MF_C5_RR3.opus
</region>

<region>
hivel=95
key=C5
lovel=64
sample=Xylophone_Soft_Mallets_Sustain_MF_C4_RR3.opus
</region>

<region>
hivel=95
key=C#7
lovel=64
sample=Xylophone_Soft_Mallets_Sustain_MF_C#6_RR3.opus
</region>

<region>
hivel=95
key=C#6
lovel=64
sample=Xylophone_Soft_Mallets_Sustain_MF_C#5_RR3.opus
</region>

<region>
hivel=95
key=C#5
lovel=64
sample=Xylophone_Soft_Mallets_Sustain_MF_C#4_RR3.opus
</region>

<region>
hivel=95
key=B7
lovel=64
offset=12997
sample=Xylophone_Soft_Mallets_Sustain_MF_B6_RR3.opus
</region>

<region>
hivel=95
key=B6
lovel=64
sample=Xylophone_Soft_Mallets_Sustain_MF_B5_RR3.opus
</region>

<region>
hivel=95
key=B5
lovel=64
sample=Xylophone_Soft_Mallets_Sustain_MF_B4_RR3.opus
</region>

<region>
hivel=95
key=B4
lovel=64
sample=Xylophone_Soft_Mallets_Sustain_MF_B3_RR3.opus
</region>

<region>
hivel=95
key=A7
lovel=64
offset=12311
sample=Xylophone_Soft_Mallets_Sustain_MF_A6_RR3.opus
</region>

<region>
hivel=95
key=A6
lovel=64
sample=Xylophone_Soft_Mallets_Sustain_MF_A5_RR3.opus
</region>

<region>
hivel=95
key=A5
lovel=64
sample=Xylophone_Soft_Mallets_Sustain_MF_A4_RR3.opus
</region>

<region>
hivel=95
key=A4
lovel=64
sample=Xylophone_Soft_Mallets_Sustain_MF_A3_RR3.opus
</region>

<region>
hivel=95
key=A#7
lovel=64
offset=10683
sample=Xylophone_Soft_Mallets_Sustain_MF_A#6_RR3.opus
</region>

<region>
hivel=95
key=A#6
lovel=64
sample=Xylophone_Soft_Mallets_Sustain_MF_A#5_RR3.opus
</region>

<region>
hivel=95
key=A#5
lovel=64
sample=Xylophone_Soft_Mallets_Sustain_MF_A#4_RR3.opus
</region>

<region>
hivel=95
key=A#4
lovel=64
sample=Xylophone_Soft_Mallets_Sustain_MF_A#3_RR3.opus
</region>

<region>
hivel=127
key=G7
lovel=96
sample=Xylophone_Soft_Mallets_Sustain_FF_G6_RR3.opus
</region>

<region>
hivel=127
key=G6
lovel=96
sample=Xylophone_Soft_Mallets_Sustain_FF_G5_RR3.opus
</region>

<region>
hivel=127
key=G5
lovel=96
sample=Xylophone_Soft_Mallets_Sustain_FF_G4_RR3.opus
</region>

<region>
hivel=127
key=G4
lovel=96
sample=Xylophone_Soft_Mallets_Sustain_FF_G3_RR3.opus
</region>

<region>
hivel=127
key=G#7
lovel=96
offset=9392
sample=Xylophone_Soft_Mallets_Sustain_FF_G#6_RR3.opus
</region>

<region>
hivel=127
key=G#6
lovel=96
sample=Xylophone_Soft_Mallets_Sustain_FF_G#5_RR3.opus
</region>

<region>
hivel=127
key=G#5
lovel=96
sample=Xylophone_Soft_Mallets_Sustain_FF_G#4_RR3.opus
</region>

<region>
hivel=127
key=G#4
lovel=96
sample=Xylophone_Soft_Mallets_Sustain_FF_G#3_RR3.opus
</region>

<region>
hivel=127
key=F7
lovel=96
sample=Xylophone_Soft_Mallets_Sustain_FF_F6_RR3.opus
</region>

<region>
hivel=127
key=F6
lovel=96
sample=Xylophone_Soft_Mallets_Sustain_FF_F5_RR3.opus
</region>

<region>
hivel=127
key=F5
lovel=96
sample=Xylophone_Soft_Mallets_Sustain_FF_F4_RR3.opus
</region>

<region>
hivel=127
key=F4
lovel=96
sample=Xylophone_Soft_Mallets_Sustain_FF_F3_RR3.opus
</region>

<region>
hivel=127
key=F#7
lovel=96
offset=14549
sample=Xylophone_Soft_Mallets_Sustain_FF_F#6_RR3.opus
</region>

<region>
hivel=127
key=F#6
lovel=96
sample=Xylophone_Soft_Mallets_Sustain_FF_F#5_RR3.opus
</region>

<region>
hivel=127
key=F#5
lovel=96
sample=Xylophone_Soft_Mallets_Sustain_FF_F#4_RR3.opus
</region>

<region>
hivel=127
key=F#4
lovel=96
sample=Xylophone_Soft_Mallets_Sustain_FF_F#3_RR3.opus
</region>

<region>
hivel=127
key=E7
lovel=96
sample=Xylophone_Soft_Mallets_Sustain_FF_E6_RR3.opus
</region>

<region>
hivel=127
key=E6
lovel=96
sample=Xylophone_Soft_Mallets_Sustain_FF_E5_RR3.opus
</region>

<region>
hivel=127
key=E5
lovel=96
sample=Xylophone_Soft_Mallets_Sustain_FF_E4_RR3.opus
</region>

<region>
hivel=127
key=D7
lovel=96
sample=Xylophone_Soft_Mallets_Sustain_FF_D6_RR3.opus
</region>

<region>
hivel=127
key=D6
lovel=96
sample=Xylophone_Soft_Mallets_Sustain_FF_D5_RR3.opus
</region>

<region>
hivel=127
key=D5
lovel=96
sample=Xylophone_Soft_Mallets_Sustain_FF_D4_RR3.opus
</region>

<region>
hivel=127
key=D#7
lovel=96
sample=Xylophone_Soft_Mallets_Sustain_FF_D#6_RR3.opus
</region>

<region>
hivel=127
key=D#6
lovel=96
sample=Xylophone_Soft_Mallets_Sustain_FF_D#5_RR3.opus
</region>

<region>
hivel=127
key=D#5
lovel=96
sample=Xylophone_Soft_Mallets_Sustain_FF_D#4_RR3.opus
</region>

<region>
hivel=127
key=C8
lovel=96
sample=Xylophone_Soft_Mallets_Sustain_FF_C7_RR3.opus
</region>

<region>
hivel=127
key=C7
lovel=96
sample=Xylophone_Soft_Mallets_Sustain_FF_C6_RR3.opus
</region>

<region>
hivel=127
key=C6
lovel=96
sample=Xylophone_Soft_Mallets_Sustain_FF_C5_RR3.opus
</region>

<region>
hivel=127
key=C5
lovel=96
sample=Xylophone_Soft_Mallets_Sustain_FF_C4_RR3.opus
</region>

<region>
hivel=127
key=C#7
lovel=96
offset=1205
sample=Xylophone_Soft_Mallets_Sustain_FF_C#6_RR3.opus
</region>

<region>
hivel=127
key=C#6
lovel=96
sample=Xylophone_Soft_Mallets_Sustain_FF_C#5_RR3.opus
</region>

<region>
hivel=127
key=C#5
lovel=96
sample=Xylophone_Soft_Mallets_Sustain_FF_C#4_RR3.opus
</region>

<region>
hivel=127
key=B7
lovel=96
sample=Xylophone_Soft_Mallets_Sustain_FF_B6_RR3.opus
</region>

<region>
hivel=127
key=B6
lovel=96
sample=Xylophone_Soft_Mallets_Sustain_FF_B5_RR3.opus
</region>

<region>
hivel=127
key=B5
lovel=96
sample=Xylophone_Soft_Mallets_Sustain_FF_B4_RR3.opus
</region>

<region>
hivel=127
key=B4
lovel=96
sample=Xylophone_Soft_Mallets_Sustain_FF_B3_RR3.opus
</region>

<region>
hivel=127
key=A7
lovel=96
offset=14748
sample=Xylophone_Soft_Mallets_Sustain_FF_A6_RR3.opus
</region>

<region>
hivel=127
key=A6
lovel=96
sample=Xylophone_Soft_Mallets_Sustain_FF_A5_RR3.opus
</region>

<region>
hivel=127
key=A5
lovel=96
sample=Xylophone_Soft_Mallets_Sustain_FF_A4_RR3.opus
</region>

<region>
hivel=127
key=A4
lovel=96
sample=Xylophone_Soft_Mallets_Sustain_FF_A3_RR3.opus
</region>

<region>
hivel=127
key=A#7
lovel=96
offset=13887
sample=Xylophone_Soft_Mallets_Sustain_FF_A#6_RR3.opus
</region>

<region>
hivel=127
key=A#6
lovel=96
sample=Xylophone_Soft_Mallets_Sustain_FF_A#5_RR3.opus
</region>

<region>
hivel=127
key=A#5
lovel=96
sample=Xylophone_Soft_Mallets_Sustain_FF_A#4_RR3.opus
</region>

<region>
hivel=127
key=A#4
lovel=96
sample=Xylophone_Soft_Mallets_Sustain_FF_A#3_RR3.opus
</region>

<region>
hivel=31
key=E7
lovel=0
offset=16038
sample=Xylophone_Soft_Mallets_Sustain_PP_D#6_RR4.opus
</region>

<region>
hivel=63
key=E7
lovel=32
offset=10451
sample=Xylophone_Soft_Mallets_Sustain_MP_D#6_RR4.opus
</region>
</group>
